<svg width="393" height="852" viewBox="0 0 393 852" fill="none" xmlns="http://www.w3.org/2000/svg">
<g clip-path="url(#clip0_2073_16557)">
<rect width="393" height="852" fill="#671212"></rect>
<path d="M660.618 903.606C660.328 894.095 620.98 863.122 620.873 860.127C627.701 848.654 635.792 837.286 644.547 827.253C648.35 822.888 658.291 822.159 652.622 812.813C646.201 802.165 602.691 796.751 589.955 793.139C585.659 787.929 600.012 751.527 603.892 744.207L597.494 734.62C591.268 736.416 552.566 741.49 550.537 737.437C552.625 722.975 554.842 708.251 557.564 693.916C559.075 686.065 568.129 676.168 555.182 672.154C547.808 669.856 505.524 681.539 503.501 679.37C500.656 663.044 501.769 644.845 499.092 628.726C497.974 621.948 494.243 598.379 484.885 599.547C476.585 600.566 461.06 641.106 458.366 640.691L421.49 595.168C421.323 594.96 416.731 592.812 416.456 592.848C408.493 594.048 411.856 606.743 410.561 613.875C409.317 620.694 401.682 657.55 398.721 659.903C390.971 655.451 363.412 634.855 355.393 640.304C346.88 648.054 347.489 705.835 342.769 709.114C330.997 706.973 291.891 690.756 282.302 698.632C278.084 702.109 281.512 742.39 284.112 749.823C283.013 753.63 265.168 749.766 260.861 749.847C224.122 750.586 216.984 753.18 241.372 788.216L178.462 824.567C173.43 828.259 171.211 833.733 175.488 838.919C182.98 847.98 236.278 853.179 249.213 862.06L217.086 894.308C213.711 904.176 248.946 914.019 256.709 916.609C263.076 918.743 300.636 928.076 301.808 930.414C301.154 939.98 277.646 967.474 280.142 974.029C283.905 983.884 294.204 979.466 303.048 980.808C308.21 981.595 336.581 986.672 338.352 988.859C340.623 999.688 332.193 1052.32 337.46 1058.92C342.971 1065.81 390.915 1054.73 401.105 1054.45C408.68 1057.04 424.706 1113.16 437.319 1083.95L429.364 1025.31C436.214 1029.36 477.553 1053.12 482.426 1047.4C487.932 1040.96 467.345 992.312 473.481 980.22C480.541 984.476 533.337 1006.52 536.471 1005.18C539.105 1004.06 539.531 1002.24 540.109 999.716C542.176 990.861 532.765 941.88 540.078 935.747C549.953 939.583 587.184 958.789 595.382 955.157C597.713 954.139 599.081 953.809 598.712 950.725L594.492 901.581L653.795 908.984L660.562 903.537L660.618 903.606Z" fill="#FF5722"></path>
<path d="M-106.683 1.59653C-123.859 23.6215 -114.99 49.0225 -101.524 71.2813C-129.923 62.4578 -157.525 67.5521 -173.693 91.9857C-200.748 132.941 -172.648 212.82 -121.264 226.263C-101.929 231.333 -95.6207 225.824 -82.1093 214.185C-78.137 250.032 -55.2235 279.817 -16.2297 285.03C27.8435 290.893 71.0962 249.59 45.9036 209.008C78.895 224.062 109.306 231.347 137.996 205.433C177.251 169.981 117.958 93.3389 69.3224 99.6293C67.5339 96.5956 69.0198 97.2827 70.153 96.0109C83.0552 81.5021 103.186 66.6511 99.5994 44.7421C96.8526 28.0222 91.4653 28.4855 83.3353 17.4157C72.2303 2.26203 75.3319 -0.816673 55.0367 -9.14949C36.0725 -16.916 19.5369 -15.937 1.59162 -6.83246C-13.8367 0.990977 -21.6843 15.2923 -28.3936 29.8393C-36.0513 4.64057 -87.5342 -22.9379 -106.683 1.59653Z" fill="#FF5722"></path>
<path d="M105.839 356V341.455H107.601V347.932H115.357V341.455H117.118V356H115.357V349.494H107.601V356H105.839ZM124.991 356.227C123.94 356.227 123.033 355.995 122.271 355.531C121.513 355.062 120.928 354.409 120.516 353.571C120.109 352.728 119.906 351.748 119.906 350.631C119.906 349.513 120.109 348.528 120.516 347.676C120.928 346.819 121.501 346.152 122.235 345.673C122.974 345.19 123.835 344.949 124.82 344.949C125.388 344.949 125.95 345.044 126.504 345.233C127.058 345.422 127.562 345.73 128.016 346.156C128.471 346.578 128.833 347.136 129.103 347.832C129.373 348.528 129.508 349.385 129.508 350.403V351.114H121.099V349.665H127.803C127.803 349.049 127.68 348.5 127.434 348.017C127.192 347.534 126.847 347.153 126.397 346.874C125.952 346.594 125.426 346.455 124.82 346.455C124.153 346.455 123.575 346.62 123.087 346.952C122.604 347.278 122.233 347.705 121.972 348.23C121.712 348.756 121.582 349.319 121.582 349.92V350.886C121.582 351.71 121.724 352.409 122.008 352.982C122.297 353.55 122.697 353.983 123.208 354.281C123.719 354.575 124.314 354.722 124.991 354.722C125.431 354.722 125.829 354.66 126.184 354.537C126.544 354.409 126.854 354.22 127.114 353.969C127.375 353.713 127.576 353.396 127.718 353.017L129.337 353.472C129.167 354.021 128.88 354.504 128.478 354.92C128.076 355.332 127.578 355.654 126.987 355.886C126.395 356.114 125.729 356.227 124.991 356.227ZM132.805 360.091C132.521 360.091 132.268 360.067 132.045 360.02C131.823 359.977 131.669 359.935 131.583 359.892L132.01 358.415C132.417 358.519 132.777 358.557 133.089 358.528C133.402 358.5 133.679 358.36 133.92 358.109C134.166 357.863 134.391 357.463 134.595 356.909L134.907 356.057L130.873 345.091H132.691L135.703 353.784H135.816L138.828 345.091H140.646L136.015 357.591C135.807 358.154 135.549 358.621 135.241 358.99C134.933 359.364 134.576 359.641 134.169 359.821C133.766 360.001 133.312 360.091 132.805 360.091ZM153.228 345.091V346.511H147.574V345.091H153.228ZM149.222 342.477H150.898V352.875C150.898 353.348 150.967 353.704 151.104 353.94C151.246 354.172 151.426 354.329 151.644 354.409C151.866 354.485 152.101 354.523 152.347 354.523C152.532 354.523 152.683 354.513 152.801 354.494C152.92 354.471 153.015 354.452 153.086 354.438L153.426 355.943C153.313 355.986 153.154 356.028 152.951 356.071C152.747 356.118 152.489 356.142 152.176 356.142C151.703 356.142 151.239 356.04 150.784 355.837C150.335 355.633 149.961 355.323 149.662 354.906C149.369 354.49 149.222 353.964 149.222 353.33V342.477ZM157.659 349.438V356H155.983V341.455H157.659V346.795H157.801C158.057 346.232 158.441 345.785 158.952 345.453C159.468 345.117 160.155 344.949 161.012 344.949C161.755 344.949 162.406 345.098 162.965 345.396C163.524 345.69 163.957 346.142 164.265 346.753C164.577 347.359 164.733 348.131 164.733 349.068V356H163.057V349.182C163.057 348.315 162.832 347.645 162.382 347.172C161.937 346.694 161.319 346.455 160.529 346.455C159.98 346.455 159.487 346.571 159.051 346.803C158.621 347.035 158.28 347.373 158.029 347.818C157.783 348.263 157.659 348.803 157.659 349.438ZM172.374 356.227C171.322 356.227 170.416 355.995 169.653 355.531C168.896 355.062 168.311 354.409 167.899 353.571C167.492 352.728 167.288 351.748 167.288 350.631C167.288 349.513 167.492 348.528 167.899 347.676C168.311 346.819 168.884 346.152 169.618 345.673C170.357 345.19 171.218 344.949 172.203 344.949C172.771 344.949 173.332 345.044 173.886 345.233C174.44 345.422 174.945 345.73 175.399 346.156C175.854 346.578 176.216 347.136 176.486 347.832C176.756 348.528 176.891 349.385 176.891 350.403V351.114H168.482V349.665H175.186C175.186 349.049 175.063 348.5 174.817 348.017C174.575 347.534 174.23 347.153 173.78 346.874C173.335 346.594 172.809 346.455 172.203 346.455C171.536 346.455 170.958 346.62 170.47 346.952C169.987 347.278 169.616 347.705 169.355 348.23C169.095 348.756 168.964 349.319 168.964 349.92V350.886C168.964 351.71 169.107 352.409 169.391 352.982C169.679 353.55 170.08 353.983 170.591 354.281C171.102 354.575 171.696 354.722 172.374 354.722C172.814 354.722 173.212 354.66 173.567 354.537C173.927 354.409 174.237 354.22 174.497 353.969C174.758 353.713 174.959 353.396 175.101 353.017L176.72 353.472C176.55 354.021 176.263 354.504 175.861 354.92C175.458 355.332 174.961 355.654 174.369 355.886C173.777 356.114 173.112 356.227 172.374 356.227ZM179.44 356V345.091H181.06V346.739H181.173C181.372 346.199 181.732 345.761 182.253 345.425C182.774 345.089 183.361 344.92 184.014 344.92C184.137 344.92 184.291 344.923 184.476 344.928C184.661 344.932 184.8 344.939 184.895 344.949V346.653C184.838 346.639 184.708 346.618 184.504 346.589C184.305 346.556 184.095 346.54 183.872 346.54C183.342 346.54 182.868 346.651 182.452 346.874C182.04 347.091 181.713 347.394 181.472 347.783C181.235 348.166 181.116 348.604 181.116 349.097V356H179.44ZM191.124 356.227C190.072 356.227 189.166 355.995 188.403 355.531C187.646 355.062 187.061 354.409 186.649 353.571C186.242 352.728 186.038 351.748 186.038 350.631C186.038 349.513 186.242 348.528 186.649 347.676C187.061 346.819 187.634 346.152 188.368 345.673C189.107 345.19 189.968 344.949 190.953 344.949C191.521 344.949 192.082 345.044 192.636 345.233C193.19 345.422 193.695 345.73 194.149 346.156C194.604 346.578 194.966 347.136 195.236 347.832C195.506 348.528 195.641 349.385 195.641 350.403V351.114H187.232V349.665H193.936C193.936 349.049 193.813 348.5 193.567 348.017C193.325 347.534 192.98 347.153 192.53 346.874C192.085 346.594 191.559 346.455 190.953 346.455C190.286 346.455 189.708 346.62 189.22 346.952C188.737 347.278 188.366 347.705 188.105 348.23C187.845 348.756 187.714 349.319 187.714 349.92V350.886C187.714 351.71 187.857 352.409 188.141 352.982C188.429 353.55 188.83 353.983 189.341 354.281C189.852 354.575 190.446 354.722 191.124 354.722C191.564 354.722 191.962 354.66 192.317 354.537C192.677 354.409 192.987 354.22 193.247 353.969C193.508 353.713 193.709 353.396 193.851 353.017L195.47 353.472C195.3 354.021 195.013 354.504 194.611 354.92C194.208 355.332 193.711 355.654 193.119 355.886C192.527 356.114 191.862 356.227 191.124 356.227ZM200.69 354.011L200.577 354.778C200.496 355.318 200.373 355.896 200.207 356.511C200.046 357.127 199.878 357.707 199.703 358.251C199.528 358.796 199.384 359.229 199.27 359.551H197.991C198.053 359.248 198.134 358.848 198.233 358.351C198.332 357.854 198.432 357.297 198.531 356.682C198.635 356.071 198.721 355.446 198.787 354.807L198.872 354.011H200.69ZM211.409 341.455V356H209.648V341.455H211.409ZM216.191 341.455V342.733C216.191 343.121 216.12 343.536 215.978 343.976C215.841 344.411 215.637 344.835 215.367 345.247C215.102 345.654 214.78 346.009 214.401 346.312L213.492 345.574C213.79 345.148 214.049 344.705 214.266 344.246C214.489 343.782 214.6 343.287 214.6 342.761V341.455H216.191ZM217.975 356V345.091H219.595V346.795H219.737C219.964 346.213 220.331 345.761 220.838 345.439C221.344 345.112 221.953 344.949 222.663 344.949C223.383 344.949 223.982 345.112 224.46 345.439C224.943 345.761 225.319 346.213 225.589 346.795H225.703C225.982 346.232 226.401 345.785 226.96 345.453C227.519 345.117 228.189 344.949 228.97 344.949C229.945 344.949 230.743 345.254 231.363 345.865C231.984 346.471 232.294 347.416 232.294 348.699V356H230.618V348.699C230.618 347.894 230.397 347.319 229.957 346.973C229.517 346.627 228.998 346.455 228.402 346.455C227.635 346.455 227.04 346.687 226.619 347.151C226.198 347.61 225.987 348.192 225.987 348.898V356H224.282V348.528C224.282 347.908 224.081 347.409 223.679 347.03C223.276 346.646 222.758 346.455 222.123 346.455C221.688 346.455 221.28 346.571 220.902 346.803C220.528 347.035 220.225 347.357 219.993 347.768C219.765 348.176 219.652 348.647 219.652 349.182V356H217.975ZM252.915 346H251.154C251.05 345.493 250.867 345.048 250.607 344.665C250.351 344.281 250.039 343.959 249.669 343.699C249.305 343.434 248.9 343.235 248.455 343.102C248.01 342.97 247.546 342.903 247.063 342.903C246.182 342.903 245.384 343.126 244.669 343.571C243.959 344.016 243.393 344.672 242.972 345.538C242.555 346.405 242.347 347.468 242.347 348.727C242.347 349.987 242.555 351.05 242.972 351.916C243.393 352.783 243.959 353.438 244.669 353.884C245.384 354.329 246.182 354.551 247.063 354.551C247.546 354.551 248.01 354.485 248.455 354.352C248.9 354.22 249.305 354.023 249.669 353.763C250.039 353.498 250.351 353.173 250.607 352.79C250.867 352.402 251.05 351.956 251.154 351.455H252.915C252.783 352.198 252.541 352.863 252.191 353.45C251.84 354.037 251.405 354.537 250.884 354.949C250.363 355.356 249.778 355.666 249.13 355.879C248.486 356.092 247.797 356.199 247.063 356.199C245.822 356.199 244.719 355.896 243.753 355.29C242.787 354.684 242.027 353.822 241.473 352.705C240.919 351.587 240.642 350.261 240.642 348.727C240.642 347.193 240.919 345.867 241.473 344.75C242.027 343.633 242.787 342.771 243.753 342.165C244.719 341.559 245.822 341.256 247.063 341.256C247.797 341.256 248.486 341.362 249.13 341.575C249.778 341.788 250.363 342.101 250.884 342.513C251.405 342.92 251.84 343.417 252.191 344.004C252.541 344.587 252.783 345.252 252.915 346ZM257.21 341.455V356H255.534V341.455H257.21ZM263.49 356.256C262.799 356.256 262.172 356.125 261.608 355.865C261.045 355.6 260.597 355.219 260.266 354.722C259.935 354.22 259.769 353.614 259.769 352.903C259.769 352.278 259.892 351.772 260.138 351.384C260.384 350.991 260.713 350.683 261.125 350.46C261.537 350.238 261.992 350.072 262.489 349.963C262.991 349.849 263.495 349.759 264.002 349.693C264.665 349.608 265.202 349.544 265.614 349.501C266.031 349.454 266.334 349.376 266.523 349.267C266.717 349.158 266.814 348.969 266.814 348.699V348.642C266.814 347.941 266.623 347.397 266.239 347.009C265.86 346.62 265.285 346.426 264.513 346.426C263.713 346.426 263.086 346.601 262.631 346.952C262.176 347.302 261.857 347.676 261.672 348.074L260.081 347.506C260.365 346.843 260.744 346.327 261.218 345.957C261.696 345.583 262.217 345.323 262.78 345.176C263.348 345.025 263.907 344.949 264.456 344.949C264.807 344.949 265.209 344.991 265.664 345.077C266.123 345.157 266.566 345.325 266.992 345.581C267.423 345.837 267.78 346.223 268.064 346.739C268.348 347.255 268.49 347.946 268.49 348.812V356H266.814V354.523H266.729C266.615 354.759 266.426 355.013 266.161 355.283C265.896 355.553 265.543 355.782 265.103 355.972C264.662 356.161 264.125 356.256 263.49 356.256ZM263.746 354.75C264.409 354.75 264.968 354.62 265.422 354.359C265.882 354.099 266.227 353.763 266.459 353.351C266.696 352.939 266.814 352.506 266.814 352.051V350.517C266.743 350.602 266.587 350.68 266.346 350.751C266.109 350.818 265.834 350.877 265.522 350.929C265.214 350.976 264.913 351.019 264.62 351.057C264.331 351.09 264.096 351.118 263.917 351.142C263.481 351.199 263.074 351.291 262.695 351.419C262.321 351.542 262.018 351.729 261.786 351.98C261.559 352.226 261.445 352.562 261.445 352.989C261.445 353.571 261.66 354.011 262.091 354.31C262.527 354.603 263.078 354.75 263.746 354.75ZM271.55 356V345.091H273.169V346.739H273.283C273.482 346.199 273.841 345.761 274.362 345.425C274.883 345.089 275.47 344.92 276.124 344.92C276.247 344.92 276.401 344.923 276.585 344.928C276.77 344.932 276.91 344.939 277.004 344.949V346.653C276.947 346.639 276.817 346.618 276.614 346.589C276.415 346.556 276.204 346.54 275.982 346.54C275.451 346.54 274.978 346.651 274.561 346.874C274.149 347.091 273.822 347.394 273.581 347.783C273.344 348.166 273.226 348.604 273.226 349.097V356H271.55ZM280.403 360.091C280.119 360.091 279.865 360.067 279.643 360.02C279.42 359.977 279.266 359.935 279.181 359.892L279.607 358.415C280.014 358.519 280.374 358.557 280.687 358.528C280.999 358.5 281.276 358.36 281.518 358.109C281.764 357.863 281.989 357.463 282.192 356.909L282.505 356.057L278.471 345.091H280.289L283.3 353.784H283.414L286.425 345.091H288.244L283.613 357.591C283.405 358.154 283.147 358.621 282.839 358.99C282.531 359.364 282.174 359.641 281.766 359.821C281.364 360.001 280.909 360.091 280.403 360.091Z" fill="#FCF7E8"></path>
<path d="M48.0896 396V379.2H50.0336V396H48.0896ZM53.6743 384.24C54.7543 383.88 55.4743 382.776 55.4743 381.72C55.4743 381.624 55.4743 381.552 55.4503 381.456C55.2343 381.6 54.9943 381.672 54.7303 381.672C53.9623 381.672 53.3623 381.048 53.3623 380.28C53.3623 379.512 53.9623 378.912 54.7543 378.912C55.8103 378.912 56.5543 379.992 56.5543 381.552C56.5543 383.472 55.4263 384.936 53.6743 385.392V384.24ZM58.5868 396V384H60.4108V386.184C61.0348 384.864 62.3068 383.712 64.2748 383.712C66.0988 383.712 67.3228 384.72 67.8028 386.376C68.5468 384.72 70.0588 383.712 71.8828 383.712C74.3548 383.712 75.6268 385.464 75.6268 388.104V396H73.8028V388.584C73.8028 386.712 73.0108 385.464 71.4028 385.464C69.4108 385.464 68.0188 387.336 68.0188 390.216V396H66.1948V388.584C66.1948 386.712 65.4028 385.464 63.7948 385.464C61.8028 385.464 60.4108 387.336 60.4108 390.216V396H58.5868ZM92.8344 396V393.816C91.9704 395.352 90.4584 396.288 88.4904 396.288C86.0424 396.288 84.3624 394.848 84.3624 392.736C84.3624 390.36 86.4504 388.848 89.7624 388.848C90.7464 388.848 91.8264 388.992 92.8104 389.232V389.184C92.8104 386.688 91.8264 385.392 89.6424 385.392C87.7704 385.392 86.7144 386.52 86.9544 388.152H85.0104C84.6744 385.632 86.6184 383.712 89.6424 383.712C92.9304 383.712 94.6344 385.728 94.6344 389.208V396H92.8344ZM86.3064 392.808C86.3064 393.984 87.1944 394.656 88.6824 394.656C90.9864 394.656 92.6184 393.024 92.8104 390.792C91.9464 390.552 90.9384 390.432 89.9064 390.432C87.6744 390.432 86.3064 391.32 86.3064 392.808ZM97.7912 396V384H99.6152V386.352C100.527 384.672 102.039 383.712 103.959 383.712C107.679 383.712 107.775 387.288 107.775 389.448V396H105.951V389.544C105.951 387.72 105.855 385.464 103.407 385.464C101.151 385.464 99.6152 387.36 99.6152 390.216V396H97.7912ZM115.912 396L122.632 379.2H125.008L131.728 396H129.616L127.912 391.56H119.776L118.072 396H115.912ZM120.448 389.784H127.216L123.832 381L120.448 389.784ZM134.408 396V379.2H136.352V396H134.408ZM151.848 396.288C148.344 396.288 146.016 393.768 146.016 390C146.016 386.232 148.32 383.712 151.968 383.712C155.592 383.712 157.488 386.256 156.888 389.616H154.944C155.376 387 154.2 385.392 151.92 385.392C149.496 385.392 147.96 387.24 147.96 390C147.96 392.76 149.52 394.608 151.848 394.608C153.672 394.608 154.992 393.456 155.496 391.68H157.488C157.032 393.984 155.184 396.288 151.848 396.288ZM165.259 396.288C161.755 396.288 159.427 393.768 159.427 390C159.427 386.232 161.755 383.712 165.259 383.712C168.739 383.712 171.067 386.232 171.067 390C171.067 393.768 168.739 396.288 165.259 396.288ZM165.259 394.608C167.563 394.608 169.123 392.76 169.123 390C169.123 387.24 167.563 385.392 165.259 385.392C162.931 385.392 161.371 387.24 161.371 390C161.371 392.76 162.931 394.608 165.259 394.608ZM173.862 396V384H175.686V386.184C176.31 384.864 177.582 383.712 179.55 383.712C181.374 383.712 182.598 384.72 183.078 386.376C183.822 384.72 185.334 383.712 187.158 383.712C189.63 383.712 190.902 385.464 190.902 388.104V396H189.078V388.584C189.078 386.712 188.286 385.464 186.678 385.464C184.686 385.464 183.294 387.336 183.294 390.216V396H181.47V388.584C181.47 386.712 180.678 385.464 179.07 385.464C177.078 385.464 175.686 387.336 175.686 390.216V396H173.862ZM194.071 400.8V384H195.895V386.04C196.783 384.576 198.247 383.712 200.095 383.712C203.287 383.712 205.519 386.232 205.519 390C205.519 393.792 203.263 396.288 200.095 396.288C198.247 396.288 196.783 395.424 195.895 393.96V400.8H194.071ZM199.687 394.608C202.015 394.608 203.575 392.76 203.575 390C203.575 387.24 202.015 385.392 199.687 385.392C197.359 385.392 195.823 387.24 195.823 390C195.823 392.76 197.359 394.608 199.687 394.608ZM216.078 396V393.816C215.214 395.352 213.702 396.288 211.734 396.288C209.286 396.288 207.606 394.848 207.606 392.736C207.606 390.36 209.694 388.848 213.006 388.848C213.99 388.848 215.07 388.992 216.054 389.232V389.184C216.054 386.688 215.07 385.392 212.886 385.392C211.014 385.392 209.958 386.52 210.198 388.152H208.254C207.918 385.632 209.862 383.712 212.886 383.712C216.174 383.712 217.878 385.728 217.878 389.208V396H216.078ZM209.55 392.808C209.55 393.984 210.438 394.656 211.926 394.656C214.23 394.656 215.862 393.024 216.054 390.792C215.19 390.552 214.182 390.432 213.15 390.432C210.918 390.432 209.55 391.32 209.55 392.808ZM221.035 396V384H222.859V386.352C223.771 384.672 225.283 383.712 227.203 383.712C230.923 383.712 231.019 387.288 231.019 389.448V396H229.195V389.544C229.195 387.72 229.099 385.464 226.651 385.464C224.395 385.464 222.859 387.36 222.859 390.216V396H221.035ZM234.309 396V384H236.133V396H234.309ZM235.221 381.96C234.429 381.96 233.829 381.36 233.829 380.568C233.829 379.8 234.429 379.2 235.221 379.2C235.989 379.2 236.589 379.8 236.589 380.568C236.589 381.36 235.989 381.96 235.221 381.96ZM244.864 396.288C241.36 396.288 239.032 393.768 239.032 390C239.032 386.232 241.36 383.712 244.864 383.712C248.344 383.712 250.672 386.232 250.672 390C250.672 393.768 248.344 396.288 244.864 396.288ZM244.864 394.608C247.168 394.608 248.728 392.76 248.728 390C248.728 387.24 247.168 385.392 244.864 385.392C242.536 385.392 240.976 387.24 240.976 390C240.976 392.76 242.536 394.608 244.864 394.608ZM253.466 396V384H255.29V386.352C256.202 384.672 257.714 383.712 259.634 383.712C263.354 383.712 263.45 387.288 263.45 389.448V396H261.626V389.544C261.626 387.72 261.53 385.464 259.082 385.464C256.826 385.464 255.29 387.36 255.29 390.216V396H253.466ZM272.907 396V379.2H274.731V386.04C275.619 384.576 277.083 383.712 278.931 383.712C282.123 383.712 284.355 386.232 284.355 390C284.355 393.792 282.099 396.288 278.931 396.288C277.083 396.288 275.619 395.424 274.731 393.96V396H272.907ZM278.523 394.608C280.899 394.608 282.411 392.76 282.411 390C282.411 387.192 280.851 385.392 278.547 385.392C276.195 385.392 274.659 387.24 274.659 390C274.659 392.76 276.195 394.608 278.523 394.608ZM290.786 396.288C288.338 396.288 286.922 394.464 286.922 391.008V384H288.746V390.984C288.746 393.672 289.85 394.536 291.29 394.536C293.378 394.536 294.866 392.76 294.866 390.216V384H296.69V396H294.866V393.528C293.978 395.376 292.538 396.288 290.786 396.288ZM300.202 396V384H302.026V396H300.202ZM301.114 381.96C300.322 381.96 299.722 381.36 299.722 380.568C299.722 379.8 300.322 379.2 301.114 379.2C301.882 379.2 302.482 379.8 302.482 380.568C302.482 381.36 301.882 381.96 301.114 381.96ZM305.669 396V379.2H307.493V396H305.669ZM315.311 396.288C313.175 396.288 312.119 395.064 312.119 392.592V385.656H309.959V384H312.119V380.904H313.943V384H317.327V385.656H313.943V392.568C313.943 394.056 314.399 394.608 315.623 394.608C316.103 394.608 316.607 394.512 317.087 394.32V395.976C316.607 396.168 315.935 396.288 315.311 396.288ZM330.393 396.288C328.257 396.288 327.201 395.064 327.201 392.592V385.656H325.041V384H327.201V380.904H329.025V384H332.409V385.656H329.025V392.568C329.025 394.056 329.481 394.608 330.705 394.608C331.185 394.608 331.689 394.512 332.169 394.32V395.976C331.689 396.168 331.017 396.288 330.393 396.288ZM340.076 396.288C336.572 396.288 334.244 393.768 334.244 390C334.244 386.232 336.572 383.712 340.076 383.712C343.556 383.712 345.884 386.232 345.884 390C345.884 393.768 343.556 396.288 340.076 396.288ZM340.076 394.608C342.38 394.608 343.94 392.76 343.94 390C343.94 387.24 342.38 385.392 340.076 385.392C337.748 385.392 336.188 387.24 336.188 390C336.188 392.76 337.748 394.608 340.076 394.608ZM54.4121 424V407.2H56.2361V414.352C57.0281 412.696 58.5641 411.712 60.4601 411.712C63.1721 411.712 64.3961 413.752 64.3961 416.776V424H62.5721V416.776C62.5721 414.76 61.8281 413.464 59.9561 413.464C57.7721 413.464 56.2361 415.336 56.2361 418.216V424H54.4121ZM72.7982 424.288C69.2222 424.288 66.9422 421.84 66.9422 418C66.9422 414.16 69.2942 411.712 72.8942 411.712C76.8062 411.712 78.7982 414.592 77.7422 418.696H68.9102C69.1502 421.192 70.5662 422.608 72.7742 422.608C74.4302 422.608 75.7502 421.744 76.2302 420.376H78.2222C77.5022 422.848 75.5102 424.288 72.7982 424.288ZM68.9342 417.04H76.1342C76.3742 414.76 75.1262 413.344 72.8222 413.344C70.6382 413.344 69.2222 414.712 68.9342 417.04ZM81.1449 424V407.2H82.9689V424H81.1449ZM86.4915 428.8V412H88.3155V414.04C89.2035 412.576 90.6675 411.712 92.5155 411.712C95.7075 411.712 97.9395 414.232 97.9395 418C97.9395 421.792 95.6835 424.288 92.5155 424.288C90.6675 424.288 89.2035 423.424 88.3155 421.96V428.8H86.4915ZM92.1075 422.608C94.4355 422.608 95.9955 420.76 95.9955 418C95.9955 415.24 94.4355 413.392 92.1075 413.392C89.7795 413.392 88.2435 415.24 88.2435 418C88.2435 420.76 89.7795 422.608 92.1075 422.608ZM107.754 428.992C107.082 428.992 106.386 428.848 105.858 428.632V426.952C106.41 427.168 106.986 427.312 107.562 427.312C109.17 427.312 109.89 426.232 110.274 425.008L110.394 424.624L105.594 412H107.538L111.234 422.488L114.666 412H116.538L112.122 425.008C111.282 427.504 109.938 428.992 107.754 428.992ZM123.498 424.288C119.994 424.288 117.666 421.768 117.666 418C117.666 414.232 119.994 411.712 123.498 411.712C126.978 411.712 129.306 414.232 129.306 418C129.306 421.768 126.978 424.288 123.498 424.288ZM123.498 422.608C125.802 422.608 127.362 420.76 127.362 418C127.362 415.24 125.802 413.392 123.498 413.392C121.17 413.392 119.61 415.24 119.61 418C119.61 420.76 121.17 422.608 123.498 422.608ZM135.724 424.288C133.276 424.288 131.86 422.464 131.86 419.008V412H133.684V418.984C133.684 421.672 134.788 422.536 136.228 422.536C138.316 422.536 139.804 420.76 139.804 418.216V412H141.628V424H139.804V421.528C138.916 423.376 137.476 424.288 135.724 424.288ZM150.875 424V412H154.139V413.968C154.763 412.504 155.939 411.64 157.475 411.64C159.491 411.64 160.787 413.128 160.787 415.36C160.787 416.32 160.547 417.328 160.163 418.12H156.779C157.211 417.352 157.451 416.656 157.451 416.008C157.451 415.072 156.947 414.448 156.155 414.448C154.979 414.448 154.139 415.888 154.139 418.072V424H150.875ZM168.243 424.36C164.379 424.36 161.907 421.84 161.907 418C161.907 414.16 164.427 411.64 168.243 411.64C172.563 411.64 175.059 414.856 173.763 418.792H165.339C165.579 420.544 166.563 421.552 168.291 421.552C169.491 421.552 170.379 421.024 170.763 420.112H174.315C173.595 422.728 171.363 424.36 168.243 424.36ZM165.387 416.752H170.619C170.763 415.264 169.899 414.328 168.219 414.328C166.683 414.328 165.699 415.144 165.387 416.752ZM177.69 424V414.784H175.29V412H177.69V410.56C177.69 408.28 179.154 406.84 181.722 406.84C184.266 406.84 185.418 408.64 184.818 410.848H181.986C182.25 409.912 182.058 409.48 181.626 409.48C181.194 409.48 180.954 409.888 180.954 410.56V412H184.794V414.784H180.954V424H177.69ZM185.682 424V407.2H188.946V424H185.682ZM197.387 424.36C193.523 424.36 191.051 421.84 191.051 418C191.051 414.16 193.571 411.64 197.387 411.64C201.707 411.64 204.203 414.856 202.907 418.792H194.483C194.723 420.544 195.707 421.552 197.435 421.552C198.635 421.552 199.523 421.024 199.907 420.112H203.459C202.739 422.728 200.507 424.36 197.387 424.36ZM194.531 416.752H199.763C199.907 415.264 199.043 414.328 197.363 414.328C195.827 414.328 194.843 415.144 194.531 416.752ZM211.267 424.36C207.475 424.36 204.955 421.816 204.955 418C204.955 414.16 207.451 411.64 211.339 411.64C215.227 411.64 217.867 414.184 216.811 418H213.595C214.051 415.768 213.139 414.448 211.339 414.448C209.491 414.448 208.339 415.816 208.339 417.976C208.339 420.16 209.539 421.552 211.315 421.552C212.539 421.552 213.379 420.88 213.859 419.752H217.411C216.763 422.416 214.627 424.36 211.267 424.36ZM224.768 424.36C222.008 424.36 220.664 422.944 220.664 420.04V414.784H218.288V412H220.664V408.736H223.928V412H227.36V414.784H223.928V420.016C223.928 421.096 224.384 421.552 225.392 421.552C225.968 421.552 226.424 421.432 227.12 421.024V423.856C226.544 424.192 225.752 424.36 224.768 424.36ZM243.66 424V421.816C242.796 423.352 241.284 424.288 239.316 424.288C236.868 424.288 235.188 422.848 235.188 420.736C235.188 418.36 237.276 416.848 240.588 416.848C241.572 416.848 242.652 416.992 243.636 417.232V417.184C243.636 414.688 242.652 413.392 240.468 413.392C238.596 413.392 237.54 414.52 237.78 416.152H235.836C235.5 413.632 237.444 411.712 240.468 411.712C243.756 411.712 245.46 413.728 245.46 417.208V424H243.66ZM237.132 420.808C237.132 421.984 238.02 422.656 239.508 422.656C241.812 422.656 243.444 421.024 243.636 418.792C242.772 418.552 241.764 418.432 240.732 418.432C238.5 418.432 237.132 419.32 237.132 420.808ZM248.617 424V412H250.441V414.352C251.353 412.672 252.865 411.712 254.785 411.712C258.505 411.712 258.601 415.288 258.601 417.448V424H256.777V417.544C256.777 415.72 256.681 413.464 254.233 413.464C251.977 413.464 250.441 415.36 250.441 418.216V424H248.617ZM266.523 424.288C263.355 424.288 261.147 421.792 261.147 418C261.147 414.232 263.331 411.712 266.523 411.712C268.419 411.712 269.907 412.624 270.795 414.112V407.2H272.619V424H270.795V421.888C269.907 423.376 268.395 424.288 266.523 424.288ZM266.979 422.608C269.307 422.608 270.867 420.76 270.867 418C270.867 415.24 269.307 413.392 266.979 413.392C264.651 413.392 263.091 415.24 263.091 418C263.091 420.76 264.651 422.608 266.979 422.608ZM281.882 424V407.2H285.146V413.776C286.034 412.432 287.45 411.64 289.226 411.64C292.418 411.64 294.722 414.184 294.722 418C294.722 421.816 292.394 424.36 289.178 424.36C287.402 424.36 286.034 423.592 285.146 422.248V424H281.882ZM288.218 421.552C290.09 421.552 291.338 420.136 291.338 418C291.338 415.84 290.066 414.448 288.218 414.448C286.346 414.448 285.122 415.864 285.122 418C285.122 420.136 286.346 421.552 288.218 421.552ZM296.747 424V412H300.011V413.968C300.635 412.504 301.811 411.64 303.347 411.64C305.363 411.64 306.659 413.128 306.659 415.36C306.659 416.32 306.419 417.328 306.035 418.12H302.651C303.083 417.352 303.323 416.656 303.323 416.008C303.323 415.072 302.819 414.448 302.027 414.448C300.851 414.448 300.011 415.888 300.011 418.072V424H296.747ZM308.544 424V412H311.808V424H308.544ZM310.176 410.464C309.072 410.464 308.232 409.6 308.232 408.52C308.232 407.416 309.072 406.576 310.176 406.576C311.28 406.576 312.12 407.416 312.12 408.52C312.12 409.6 311.28 410.464 310.176 410.464ZM314.453 424V412H317.717V414.088C318.413 412.576 319.829 411.64 321.629 411.64C325.517 411.64 325.517 415.504 325.517 417.16V424H322.253V417.184C322.253 416.056 322.253 414.352 320.381 414.352C318.821 414.352 317.717 415.864 317.717 418.096V424H314.453ZM333.313 429.16C330.169 429.16 327.769 427.528 327.289 424.888H330.745C330.961 425.824 331.897 426.352 333.265 426.352C334.609 426.352 335.665 425.824 335.665 424.864C335.665 423.928 334.657 423.256 332.953 423.256C332.041 423.256 330.457 423.448 329.353 423.736V421.6C331.441 421.384 333.073 420.808 334.249 419.992C333.697 420.16 333.049 420.256 332.353 420.256C329.425 420.256 327.433 418.648 327.433 416.128C327.433 413.464 329.665 411.64 333.025 411.64C334.753 411.64 336.145 412.12 337.129 412.936C337.321 412.24 337.249 411.328 337.057 410.512H339.481C339.745 411.928 339.241 413.536 338.281 414.472C338.497 415 338.593 415.528 338.593 416.104C338.593 418.144 337.297 420.04 334.897 421.288C337.441 421.624 339.049 422.992 339.049 425.032C339.049 427.528 336.481 429.16 333.313 429.16ZM333.025 417.904C334.345 417.904 335.209 417.208 335.209 416.176C335.209 415.144 334.345 414.448 333.025 414.448C331.705 414.448 330.817 415.144 330.817 416.176C330.817 417.208 331.705 417.904 333.025 417.904ZM66.4527 452.36C62.6607 452.36 60.1407 449.816 60.1407 446C60.1407 442.16 62.6367 439.64 66.5247 439.64C70.4127 439.64 73.0527 442.184 71.9967 446H68.7807C69.2367 443.768 68.3247 442.448 66.5247 442.448C64.6767 442.448 63.5247 443.816 63.5247 445.976C63.5247 448.16 64.7247 449.552 66.5007 449.552C67.7247 449.552 68.5647 448.88 69.0447 447.752H72.5967C71.9487 450.416 69.8127 452.36 66.4527 452.36ZM74.6693 452V435.2H77.9333V452H74.6693ZM88.3784 452V450.128C87.4664 451.592 86.0504 452.36 84.2024 452.36C81.7064 452.36 80.0264 450.92 80.0264 448.76C80.0264 446.288 82.1384 444.752 85.5464 444.752C86.4104 444.752 87.3224 444.848 88.1624 445.016C88.1624 443.288 87.4424 442.4 85.8824 442.4C84.6824 442.4 83.9384 443.072 83.9864 444.152H80.6264C80.5544 441.44 82.6904 439.64 85.8344 439.64C89.4104 439.64 91.4264 441.584 91.4264 445.04V452H88.3784ZM83.2904 448.664C83.2904 449.432 83.8904 449.888 84.8984 449.888C86.4824 449.888 87.6584 448.928 88.1384 447.368C87.3704 447.176 86.6504 447.104 85.8584 447.104C84.2504 447.104 83.2904 447.68 83.2904 448.664ZM93.8028 452V440H97.0668V441.968C97.6908 440.504 98.8668 439.64 100.403 439.64C102.419 439.64 103.715 441.128 103.715 443.36C103.715 444.32 103.475 445.328 103.091 446.12H99.7068C100.139 445.352 100.379 444.656 100.379 444.008C100.379 443.072 99.8748 442.448 99.0828 442.448C97.9068 442.448 97.0668 443.888 97.0668 446.072V452H93.8028ZM105.6 452V440H108.864V452H105.6ZM107.232 438.464C106.128 438.464 105.288 437.6 105.288 436.52C105.288 435.416 106.128 434.576 107.232 434.576C108.336 434.576 109.176 435.416 109.176 436.52C109.176 437.6 108.336 438.464 107.232 438.464ZM117.077 452.36C114.317 452.36 112.973 450.944 112.973 448.04V442.784H110.597V440H112.973V436.736H116.237V440H119.669V442.784H116.237V448.016C116.237 449.096 116.693 449.552 117.701 449.552C118.277 449.552 118.733 449.432 119.429 449.024V451.856C118.853 452.192 118.061 452.36 117.077 452.36ZM123.227 457.136C122.603 457.136 121.883 457.016 121.211 456.776V454.016C121.859 454.256 122.387 454.352 122.867 454.352C124.235 454.352 124.907 453.488 125.291 452.648L120.419 440H123.875L126.731 448.736L129.347 440H132.755L128.387 452.888C127.883 454.352 126.731 457.136 123.227 457.136ZM140.552 452V435.2H142.376V442.04C143.264 440.576 144.728 439.712 146.576 439.712C149.768 439.712 152 442.232 152 446C152 449.792 149.744 452.288 146.576 452.288C144.728 452.288 143.264 451.424 142.376 449.96V452H140.552ZM146.168 450.608C148.544 450.608 150.056 448.76 150.056 446C150.056 443.192 148.496 441.392 146.192 441.392C143.84 441.392 142.304 443.24 142.304 446C142.304 448.76 143.84 450.608 146.168 450.608ZM162.56 452V449.816C161.696 451.352 160.184 452.288 158.216 452.288C155.768 452.288 154.088 450.848 154.088 448.736C154.088 446.36 156.176 444.848 159.488 444.848C160.472 444.848 161.552 444.992 162.536 445.232V445.184C162.536 442.688 161.552 441.392 159.368 441.392C157.496 441.392 156.44 442.52 156.68 444.152H154.736C154.4 441.632 156.344 439.712 159.368 439.712C162.656 439.712 164.36 441.728 164.36 445.208V452H162.56ZM156.032 448.808C156.032 449.984 156.92 450.656 158.408 450.656C160.712 450.656 162.344 449.024 162.536 446.792C161.672 446.552 160.664 446.432 159.632 446.432C157.4 446.432 156.032 447.32 156.032 448.808ZM172.724 452.288C169.22 452.288 166.892 449.768 166.892 446C166.892 442.232 169.196 439.712 172.844 439.712C176.468 439.712 178.364 442.256 177.764 445.616H175.82C176.252 443 175.076 441.392 172.796 441.392C170.372 441.392 168.836 443.24 168.836 446C168.836 448.76 170.396 450.608 172.724 450.608C174.548 450.608 175.868 449.456 176.372 447.68H178.364C177.908 449.984 176.06 452.288 172.724 452.288ZM180.928 452V435.2H182.752V442.352C183.544 440.696 185.08 439.712 186.952 439.712C189.328 439.712 190.936 441.296 190.936 443.576C190.936 445.52 189.76 446.96 187.816 447.584C189.616 448.256 191.032 449.768 191.584 452H189.472C188.944 449.648 187.24 448.256 184.984 448.256V446.768C187.408 446.768 188.992 445.496 188.992 443.744C188.992 442.256 187.888 441.464 186.472 441.464C184.312 441.464 182.752 443.336 182.752 446.216V452H180.928ZM200.677 452V440H202.501V452H200.677ZM201.589 437.96C200.797 437.96 200.197 437.36 200.197 436.568C200.197 435.8 200.797 435.2 201.589 435.2C202.357 435.2 202.957 435.8 202.957 436.568C202.957 437.36 202.357 437.96 201.589 437.96ZM206.023 452V440H207.847V442.352C208.759 440.672 210.271 439.712 212.191 439.712C215.911 439.712 216.007 443.288 216.007 445.448V452H214.183V445.544C214.183 443.72 214.087 441.464 211.639 441.464C209.383 441.464 207.847 443.36 207.847 446.216V452H206.023ZM223.239 452.288C221.103 452.288 220.047 451.064 220.047 448.592V441.656H217.887V440H220.047V436.904H221.871V440H225.255V441.656H221.871V448.568C221.871 450.056 222.327 450.608 223.551 450.608C224.031 450.608 224.535 450.512 225.015 450.32V451.976C224.535 452.168 223.863 452.288 223.239 452.288ZM232.922 452.288C229.418 452.288 227.09 449.768 227.09 446C227.09 442.232 229.418 439.712 232.922 439.712C236.402 439.712 238.73 442.232 238.73 446C238.73 449.768 236.402 452.288 232.922 452.288ZM232.922 450.608C235.226 450.608 236.786 448.76 236.786 446C236.786 443.24 235.226 441.392 232.922 441.392C230.594 441.392 229.034 443.24 229.034 446C229.034 448.76 230.594 450.608 232.922 450.608ZM248.531 456.992C247.859 456.992 247.163 456.848 246.635 456.632V454.952C247.187 455.168 247.763 455.312 248.339 455.312C249.947 455.312 250.667 454.232 251.051 453.008L251.171 452.624L246.371 440H248.315L252.011 450.488L255.443 440H257.315L252.899 453.008C252.059 455.504 250.715 456.992 248.531 456.992ZM264.275 452.288C260.771 452.288 258.443 449.768 258.443 446C258.443 442.232 260.771 439.712 264.275 439.712C267.755 439.712 270.083 442.232 270.083 446C270.083 449.768 267.755 452.288 264.275 452.288ZM264.275 450.608C266.579 450.608 268.139 448.76 268.139 446C268.139 443.24 266.579 441.392 264.275 441.392C261.947 441.392 260.387 443.24 260.387 446C260.387 448.76 261.947 450.608 264.275 450.608ZM276.501 452.288C274.053 452.288 272.637 450.464 272.637 447.008V440H274.461V446.984C274.461 449.672 275.565 450.536 277.005 450.536C279.093 450.536 280.581 448.76 280.581 446.216V440H282.405V452H280.581V449.528C279.693 451.376 278.253 452.288 276.501 452.288ZM285.797 452V440H287.621V442.088C288.317 440.576 289.421 439.712 290.837 439.712C292.565 439.712 293.645 441.056 293.645 442.736C293.645 443.456 293.453 444.104 293.189 444.656H291.245C291.557 444.176 291.701 443.624 291.701 443.144C291.701 442.112 291.101 441.464 290.189 441.464C288.653 441.464 287.621 443.336 287.621 446.168V446.192V452H285.797ZM302.569 452V435.2H304.393V452H302.569ZM308.035 452V440H309.859V452H308.035ZM308.947 437.96C308.155 437.96 307.555 437.36 307.555 436.568C307.555 435.8 308.155 435.2 308.947 435.2C309.715 435.2 310.315 435.8 310.315 436.568C310.315 437.36 309.715 437.96 308.947 437.96ZM314.702 438.224C314.702 436.16 315.782 434.912 317.774 434.912C319.934 434.912 320.726 436.376 320.054 438.416H318.374C318.782 437.288 318.518 436.592 317.702 436.592C316.958 436.592 316.526 437.192 316.526 438.224V440H320.054V441.656H316.526V452H314.702V441.656H312.542V440H314.702V438.224ZM327.081 452.288C323.505 452.288 321.225 449.84 321.225 446C321.225 442.16 323.577 439.712 327.177 439.712C331.089 439.712 333.081 442.592 332.025 446.696H323.193C323.433 449.192 324.849 450.608 327.057 450.608C328.713 450.608 330.033 449.744 330.513 448.376H332.505C331.785 450.848 329.793 452.288 327.081 452.288ZM323.217 445.04H330.417C330.657 442.76 329.409 441.344 327.105 441.344C324.921 441.344 323.505 442.712 323.217 445.04Z" fill="#FCF7E8"></path>
</g>
<defs>
<clipPath id="clip0_2073_16557">
<rect width="393" height="852" fill="white"></rect>
</clipPath>
</defs>
</svg>