<svg xmlns="http://www.w3.org/2000/svg" viewBox="0 0 800 1200" width="800" height="1200" role="img" aria-label="The Design of Everyday Things by Don Norman">
  <defs>
    <linearGradient id="wood" x1="0" y1="0" x2="1" y2="0">
      <stop offset="0" stop-color="#d7b487"></stop>
      <stop offset="0.5" stop-color="#e0c096"></stop>
      <stop offset="1" stop-color="#d2ad80"></stop>
    </linearGradient>
    <pattern id="dots" width="34" height="40" patternUnits="userSpaceOnUse" patternTransform="rotate(2)">
      <circle cx="6" cy="6" r="1.5" fill="#6b4f32" opacity="0.28"></circle>
    </pattern>
  </defs>

  
  <rect width="800" height="1200" fill="url(#wood)"></rect>
  
  <g stroke="#b89162" stroke-width="2" fill="none" opacity="0.35">
    <path d="M120 0 C140 300 100 600 130 1200"></path>
    <path d="M300 0 C320 350 280 700 310 1200"></path>
    <path d="M470 0 C455 400 500 800 470 1200"></path>
    <path d="M650 0 C670 300 630 700 660 1200"></path>
  </g>
  <g stroke="#c7a273" stroke-width="6" fill="none" opacity="0.3">
    <path d="M210 0 C230 400 190 800 225 1200"></path>
    <path d="M560 0 C540 350 590 750 555 1200"></path>
  </g>
  
  <rect width="800" height="1200" fill="url(#dots)"></rect>

  
  <g fill="#141210" font-family="&#39;Schibsted Grotesk&#39;,&#39;Arial Black&#39;,Arial,sans-serif" font-weight="800" letter-spacing="-2.5">
    <text x="280" y="230" font-size="76">The Design</text>
    <text x="280" y="314" font-size="76">of Everyday</text>
    <text x="280" y="398" font-size="76">Things</text>
  </g>
  <text x="282" y="1098" fill="#141210" font-family="&#39;Schibsted Grotesk&#39;,Arial,sans-serif" font-weight="700" font-size="34" letter-spacing="-0.5">Don Norman</text>

  
  <g fill="none" stroke="#141210" stroke-width="4" stroke-linecap="round" stroke-linejoin="round">
    
    <rect x="612" y="430" width="118" height="150" rx="14"></rect>
    <g>
      <rect x="630" y="448" width="24" height="22" rx="3"></rect>
      <rect x="659" y="448" width="24" height="22" rx="3"></rect>
      <rect x="688" y="448" width="24" height="22" rx="3"></rect>
      <rect x="630" y="476" width="24" height="22" rx="3"></rect>
      <rect x="659" y="476" width="24" height="22" rx="3"></rect>
      <rect x="688" y="476" width="24" height="22" rx="3"></rect>
      <rect x="630" y="504" width="24" height="22" rx="3"></rect>
      <rect x="659" y="504" width="24" height="22" rx="3"></rect>
      <rect x="688" y="504" width="24" height="22" rx="3"></rect>
      <rect x="630" y="532" width="24" height="22" rx="3"></rect>
      <rect x="659" y="532" width="24" height="22" rx="3"></rect>
      <rect x="688" y="532" width="24" height="22" rx="3"></rect>
    </g>
    <circle cx="700" cy="640" r="30"></circle>
    <path d="M670 640 H560 a14 14 0 0 0 -14 14 v6 a14 14 0 0 0 14 14 h0"></path>

    
    <rect x="430" y="690" width="70" height="120" rx="6"></rect>
    <rect x="452" y="724" width="48" height="52" rx="4"></rect>
    <path d="M430 734 H150"></path>
    <path d="M430 766 H150"></path>

    
    <circle cx="690" cy="770" r="62"></circle>
    <circle cx="690" cy="752" r="13"></circle>
    <path d="M684 762 L678 792 H702 L696 762"></path>

    
    <circle cx="700" cy="940" r="52"></circle>
    <circle cx="700" cy="940" r="30"></circle>
    <path d="M672 940 H560 a16 16 0 0 0 -16 16 v4 a16 16 0 0 0 16 16"></path>
  </g>
</svg>